<svg id="linkedin" xmlns="http://www.w3.org/2000/svg" width="38" height="38" viewBox="0 0 38 38">
  <g id="Groupe_48" data-name="Groupe 48">
    <g id="Groupe_47" data-name="Groupe 47">
      <path id="Tracé_56" data-name="Tracé 56" d="M27.565,21.3a3.037,3.037,0,0,0-2.759,1.521v-1.3H21.743c.04.863,0,9.215,0,9.215h3.063V25.582a2.064,2.064,0,0,1,.1-.748,1.677,1.677,0,0,1,1.572-1.121c1.108,0,1.551.845,1.551,2.085v4.93h3.064V25.444c0-2.829-1.513-4.146-3.528-4.146ZM24.8,22.852h-.019a.23.23,0,0,0,.019-.031Z" transform="translate(-5.103 -4.998)" fill="#fff"/>
      <path id="Tracé_57" data-name="Tracé 57" d="M15.523,21.582h3.063V30.8H15.523Z" transform="translate(-3.643 -5.065)" fill="#fff"/>
      <path id="Tracé_58" data-name="Tracé 58" d="M19,0A19,19,0,1,0,38,19,19.022,19.022,0,0,0,19,0ZM29.075,27.594a1.48,1.48,0,0,1-1.5,1.462H10.294a1.48,1.48,0,0,1-1.5-1.462V10.111a1.48,1.48,0,0,1,1.5-1.462H27.576a1.481,1.481,0,0,1,1.5,1.462Z" fill="#fff"/>
      <path id="Tracé_59" data-name="Tracé 59" d="M17.02,15.777a1.6,1.6,0,1,0-.041,3.184H17a1.6,1.6,0,1,0,.021-3.184Z" transform="translate(-3.587 -3.702)" fill="#fff"/>
    </g>
  </g>
</svg>
