<svg id="twitter-social-badge" xmlns="http://www.w3.org/2000/svg" width="38" height="38" viewBox="0 0 38 38">
  <g id="Groupe_46" data-name="Groupe 46">
    <path id="Tracé_55" data-name="Tracé 55" d="M19,0A19,19,0,1,0,38,19,19.022,19.022,0,0,0,19,0Zm8.476,14.651c.008.188.013.378.013.568A12.44,12.44,0,0,1,8.342,25.7a8.83,8.83,0,0,0,6.475-1.811,4.377,4.377,0,0,1-4.085-3.038,4.39,4.39,0,0,0,1.975-.073A4.374,4.374,0,0,1,9.2,16.487c0-.018,0-.038,0-.055a4.355,4.355,0,0,0,1.98.546,4.38,4.38,0,0,1-1.353-5.839,12.417,12.417,0,0,0,9.013,4.571,4.376,4.376,0,0,1,7.452-3.99,8.729,8.729,0,0,0,2.778-1.062,4.393,4.393,0,0,1-1.926,2.42,8.694,8.694,0,0,0,2.512-.688,8.8,8.8,0,0,1-2.18,2.261Z" fill="#fff"/>
  </g>
</svg>
